<?xml version="1.0" encoding="UTF-8" standalone="no"?>
<!DOCTYPE svg PUBLIC "-//W3C//DTD SVG 1.1//EN" "http://www.w3.org/Graphics/SVG/1.1/DTD/svg11.dtd">
<svg width="100%" height="100%" viewBox="0 0 3300 2200" version="1.1" xmlns="http://www.w3.org/2000/svg" xmlns:xlink="http://www.w3.org/1999/xlink" xml:space="preserve" xmlns:serif="http://www.serif.com/" style="fill-rule:evenodd;clip-rule:evenodd;">
    <g id="Notes">
        <rect id="artboard" x="0" y="0" width="3300" height="2200" style="fill:white;"/>
        <path d="M263,292L3036,292" style="fill:none;fill-rule:nonzero;stroke:black;stroke-width:0.5px;"/>
        <g transform="matrix(1,0,0,1,263,322)">
            <text x="0px" y="0px" style="font-family:'SFProDisplay-Regular', 'SF Pro Display';font-size:16px;">W<tspan x="13.922px " y="0px ">e</tspan>ight/Scale V<tspan x="101.313px " y="0px ">a</tspan>riations</text>
        </g>
        <g transform="matrix(1,0,0,1,559.711,322)">
            <text x="-30.41px" y="0px" style="font-family:'SFProDisplay-Regular', 'SF Pro Display';font-size:16px;">Ultr<tspan x="-6.41px " y="0px ">a</tspan>light</text>
        </g>
        <g transform="matrix(1,0,0,1,856.422,322)">
            <text x="-14.824px" y="0px" style="font-family:'SFProDisplay-Regular', 'SF Pro Display';font-size:16px;">Thin</text>
        </g>
        <g transform="matrix(1,0,0,1,1153.13,322)">
            <text x="-16.957px" y="0px" style="font-family:'SFProDisplay-Regular', 'SF Pro Display';font-size:16px;">Light</text>
        </g>
        <g transform="matrix(1,0,0,1,1449.84,322)">
            <text x="-25.609px" y="0px" style="font-family:'SFProDisplay-Regular', 'SF Pro Display';font-size:16px;">Regular</text>
        </g>
        <g transform="matrix(1,0,0,1,1746.56,322)">
            <text x="-27.465px" y="0px" style="font-family:'SFProDisplay-Regular', 'SF Pro Display';font-size:16px;">Medium</text>
        </g>
        <g transform="matrix(1,0,0,1,2043.27,322)">
            <text x="-31.656px" y="0px" style="font-family:'SFProDisplay-Regular', 'SF Pro Display';font-size:16px;">Semibold</text>
        </g>
        <g transform="matrix(1,0,0,1,2339.98,322)">
            <text x="-15.145px" y="0px" style="font-family:'SFProDisplay-Regular', 'SF Pro Display';font-size:16px;">Bold</text>
        </g>
        <g transform="matrix(1,0,0,1,2636.69,322)">
            <text x="-21.461px" y="0px" style="font-family:'SFProDisplay-Regular', 'SF Pro Display';font-size:16px;">Heavy</text>
        </g>
        <g transform="matrix(1,0,0,1,2933.4,322)">
            <text x="-18.375px" y="0px" style="font-family:'SFProDisplay-Regular', 'SF Pro Display';font-size:16px;">Black</text>
        </g>
        <path d="M263,1903L3036,1903" style="fill:none;fill-rule:nonzero;stroke:black;stroke-width:0.5px;"/>
        <g transform="matrix(1,0,0,1,263,1933)">
            <path d="M9.248,0.83C13.555,0.83 17.139,-2.744 17.139,-7.051C17.139,-11.357 13.545,-14.932 9.238,-14.932C4.941,-14.932 1.367,-11.357 1.367,-7.051C1.367,-2.744 4.951,0.83 9.248,0.83ZM9.248,-0.654C5.703,-0.654 2.871,-3.496 2.871,-7.051C2.871,-10.605 5.693,-13.447 9.238,-13.447C12.793,-13.447 15.635,-10.605 15.645,-7.051C15.654,-3.496 12.803,-0.654 9.248,-0.654ZM6.396,-6.318L8.506,-6.318L8.506,-4.199C8.506,-3.76 8.799,-3.457 9.229,-3.457C9.678,-3.457 9.971,-3.76 9.971,-4.199L9.971,-6.318L12.1,-6.318C12.539,-6.318 12.842,-6.611 12.842,-7.041C12.842,-7.48 12.539,-7.783 12.1,-7.783L9.971,-7.783L9.971,-9.893C9.971,-10.342 9.678,-10.645 9.229,-10.645C8.799,-10.645 8.506,-10.342 8.506,-9.893L8.506,-7.783L6.396,-7.783C5.947,-7.783 5.645,-7.48 5.645,-7.041C5.645,-6.611 5.947,-6.318 6.396,-6.318Z" style="fill-rule:nonzero;"/>
        </g>
        <g transform="matrix(1,0,0,1,281.506,1933)">
            <path d="M11.709,2.91C17.158,2.91 21.67,-1.611 21.67,-7.051C21.67,-12.5 17.148,-17.012 11.699,-17.012C6.26,-17.012 1.748,-12.5 1.748,-7.051C1.748,-1.611 6.27,2.91 11.709,2.91ZM11.709,1.25C7.1,1.25 3.418,-2.441 3.418,-7.051C3.418,-11.66 7.09,-15.352 11.699,-15.352C16.309,-15.352 20,-11.66 20.01,-7.051C20.02,-2.441 16.318,1.25 11.709,1.25ZM7.988,-6.23L10.879,-6.23L10.879,-3.32C10.879,-2.832 11.211,-2.5 11.69,-2.5C12.178,-2.5 12.52,-2.832 12.52,-3.32L12.52,-6.23L15.43,-6.23C15.918,-6.23 16.25,-6.563 16.25,-7.041C16.25,-7.529 15.918,-7.871 15.43,-7.871L12.52,-7.871L12.52,-10.762C12.52,-11.27 12.178,-11.602 11.69,-11.602C11.211,-11.602 10.879,-11.26 10.879,-10.762L10.879,-7.871L7.988,-7.871C7.48,-7.871 7.148,-7.529 7.148,-7.041C7.148,-6.563 7.49,-6.23 7.988,-6.23Z" style="fill-rule:nonzero;"/>
        </g>
        <g transform="matrix(1,0,0,1,304.924,1933)">
            <path d="M14.971,5.664C21.934,5.664 27.695,-0.098 27.695,-7.051C27.695,-14.014 21.924,-19.775 14.961,-19.775C8.008,-19.775 2.256,-14.014 2.256,-7.051C2.256,-0.098 8.018,5.664 14.971,5.664ZM14.971,3.848C8.936,3.848 4.082,-1.016 4.082,-7.051C4.082,-13.096 8.926,-17.949 14.961,-17.949C21.006,-17.949 25.859,-13.096 25.869,-7.051C25.879,-1.016 21.016,3.848 14.971,3.848ZM10.059,-6.143L14.063,-6.143L14.063,-2.129C14.063,-1.592 14.434,-1.221 14.951,-1.221C15.488,-1.221 15.859,-1.592 15.859,-2.129L15.859,-6.143L19.883,-6.143C20.41,-6.143 20.791,-6.514 20.791,-7.031C20.791,-7.568 20.42,-7.949 19.883,-7.949L15.859,-7.949L15.859,-11.953C15.859,-12.51 15.488,-12.881 14.951,-12.881C14.434,-12.881 14.063,-12.5 14.063,-11.953L14.063,-7.949L10.059,-7.949C9.502,-7.949 9.131,-7.568 9.131,-7.031C9.131,-6.514 9.512,-6.143 10.059,-6.143Z" style="fill-rule:nonzero;"/>
        </g>
        <g transform="matrix(1,0,0,1,263,1953)">
            <text x="0px" y="0px" style="font-family:'SFProDisplay-Regular', 'SF Pro Display';font-size:16px;">Design V<tspan x="59.211px " y="0px ">a</tspan>riations</text>
        </g>
        <g transform="matrix(1,0,0,1,263,1971)">
            <text x="0px" y="0px" style="font-family:'SFProDisplay-Regular', 'SF Pro Display';font-size:16px;">Symbols ar<tspan x="74.039px " y="0px ">e</tspan> support<tspan x="136.977px " y="0px ">e</tspan>d in up t<tspan x="197.406px " y="0px ">o</tspan> nine weights and thr<tspan x="343.289px " y="0px ">e</tspan>e scales.</text>
        </g>
        <g transform="matrix(1,0,0,1,263,1989)">
            <text x="0px" y="0px" style="font-family:'SFProDisplay-Regular', 'SF Pro Display';font-size:16px;">F<tspan x="8.133px " y="0px ">o</tspan>r optimal lay<tspan x="96.43px " y="0px ">o</tspan>ut with t<tspan x="157.508px 165.547px " y="0px 0px ">ex</tspan>t and other symbols,<tspan x="306.883px 310.164px 317.578px " y="0px 0px 0px "> ve</tspan>rtically align</text>
        </g>
        <g transform="matrix(1,0,0,1,263,2007)">
            <text x="0px" y="0px" style="font-family:'SFProDisplay-Regular', 'SF Pro Display';font-size:16px;">symbols with the adjacent t<tspan x="181.344px 189.383px " y="0px 0px ">ex</tspan>t.</text>
        </g>
        <path d="M776,1919L776,1933" style="fill:none;fill-rule:nonzero;stroke:rgb(0,174,239);stroke-width:0.5px;"/>
        <g transform="matrix(1,0,0,1,776,1933)">
            <path d="M3.311,0.127C3.828,0.127 4.082,-0.068 4.268,-0.605L5.527,-4.063L11.289,-4.063L12.549,-0.605C12.734,-0.068 12.988,0.127 13.496,0.127C14.014,0.127 14.346,-0.186 14.346,-0.674C14.346,-0.84 14.316,-0.986 14.238,-1.201L9.658,-13.389C9.434,-13.994 9.033,-14.287 8.408,-14.287C7.803,-14.287 7.393,-13.994 7.178,-13.398L2.598,-1.191C2.52,-0.977 2.49,-0.83 2.49,-0.664C2.49,-0.176 2.803,0.127 3.311,0.127ZM6.006,-5.537L8.379,-12.109L8.428,-12.109L10.801,-5.537L6.006,-5.537Z" style="fill-rule:nonzero;"/>
        </g>
        <path d="M792.836,1919L792.836,1933" style="fill:none;fill-rule:nonzero;stroke:rgb(0,174,239);stroke-width:0.5px;"/>
        <g transform="matrix(1,0,0,1,776,1953)">
            <text x="0px" y="0px" style="font-family:'SFProDisplay-Regular', 'SF Pro Display';font-size:16px;">M<tspan x="13.063px 21.094px 25.633px " y="0px 0px 0px ">arg</tspan>ins</text>
        </g>
        <g transform="matrix(1,0,0,1,776,1971)">
            <text x="0px" y="0px" style="font-family:'SFProDisplay-Regular', 'SF Pro Display';font-size:16px;">L<tspan x="8.156px " y="0px ">e</tspan>ading and tr<tspan x="95.227px " y="0px ">a</tspan>iling mar<tspan x="159.031px " y="0px ">g</tspan>ins on the left and right side of each symbol</text>
        </g>
        <g transform="matrix(1,0,0,1,776,1989)">
            <text x="0px" y="0px" style="font-family:'SFProDisplay-Regular', 'SF Pro Display';font-size:16px;">can be adjust<tspan x="88.727px " y="0px ">e</tspan>d b<tspan x="117.609px " y="0px ">y</tspan> modifying the x<tspan x="230.703px " y="0px ">-</tspan>location of the mar<tspan x="360.664px " y="0px ">g</tspan>in guidelines.</text>
        </g>
        <g transform="matrix(1,0,0,1,776,2007)">
            <text x="0px" y="0px" style="font-family:'SFProDisplay-Regular', 'SF Pro Display';font-size:16px;">Modifications ar<tspan x="106.484px " y="0px ">e</tspan> aut<tspan x="139.008px " y="0px ">o</tspan>matically applied pr<tspan x="275.977px " y="0px ">o</tspan>portionally t<tspan x="361.93px " y="0px ">o</tspan> all</text>
        </g>
        <g transform="matrix(1,0,0,1,776,2025)">
            <text x="0px" y="0px" style="font-family:'SFProDisplay-Regular', 'SF Pro Display';font-size:16px;">scales and weights.</text>
        </g>
        <g transform="matrix(1,0,0,1,1289,1933)">
            <path d="M2.842,1.865L4.541,3.574C5.4,4.443 6.387,4.385 7.314,3.359L17.49,-7.852C17.754,-7.764 18.027,-7.783 18.34,-7.842L19.404,-8.037L20.068,-7.363L20.029,-6.807C19.99,-6.309 20.117,-5.928 20.606,-5.449L21.367,-4.707C21.846,-4.229 22.461,-4.199 22.93,-4.668L25.84,-7.588C26.309,-8.057 26.289,-8.652 25.811,-9.131L25.039,-9.893C24.561,-10.371 24.19,-10.527 23.711,-10.488L23.135,-10.44L22.49,-11.074L22.734,-12.197C22.861,-12.764 22.705,-13.203 22.119,-13.789L19.922,-15.977C16.582,-19.297 12.148,-19.219 9.258,-16.328C8.838,-15.918 8.809,-15.342 9.043,-14.951C9.277,-14.59 9.736,-14.355 10.381,-14.522C11.846,-14.863 13.369,-14.922 14.795,-13.984L14.209,-12.529C14.014,-12.051 13.984,-11.65 14.111,-11.289L3.047,-0.898C2.061,0.02 1.982,0.996 2.842,1.865ZM10.752,-15.957C13.184,-17.734 16.475,-17.432 18.701,-15.205L21.133,-12.793C21.367,-12.559 21.406,-12.373 21.338,-12.031L21.016,-10.547L22.52,-9.063L23.506,-9.121C23.76,-9.131 23.838,-9.111 24.033,-8.916L24.609,-8.34L22.168,-5.898L21.592,-6.475C21.397,-6.67 21.367,-6.748 21.377,-7.012L21.445,-7.988L19.951,-9.473L18.428,-9.219C18.106,-9.15 17.959,-9.18 17.715,-9.414L15.713,-11.416C15.459,-11.65 15.43,-11.816 15.586,-12.188L16.465,-14.277C14.902,-15.732 12.871,-16.357 10.84,-15.762C10.684,-15.723 10.625,-15.85 10.752,-15.957ZM5.273,2.305L4.102,1.143C3.633,0.684 3.74,0.342 4.141,-0.02L14.951,-10.195L16.416,-8.711L6.426,2.275C6.074,2.676 5.742,2.773 5.273,2.305Z" style="fill-rule:nonzero;"/>
        </g>
        <g transform="matrix(1,0,0,1,1289,1953)">
            <text x="0px" y="0px" style="font-family:'SFProDisplay-Regular', 'SF Pro Display';font-size:16px;">Exporting</text>
        </g>
        <g transform="matrix(1,0,0,1,1289,1971)">
            <text x="0px" y="0px" style="font-family:'SFProDisplay-Regular', 'SF Pro Display';font-size:16px;">Symbols should be outlined when e<tspan x="235.289px " y="0px ">x</tspan>porting t<tspan x="298.188px " y="0px ">o</tspan> ensur<tspan x="347px " y="0px ">e</tspan> the</text>
        </g>
        <g transform="matrix(1,0,0,1,1289,1989)">
            <text x="0px" y="0px" style="font-family:'SFProDisplay-Regular', 'SF Pro Display';font-size:16px;">design is pr<tspan x="75.641px " y="0px ">e</tspan>serv<tspan x="111.82px " y="0px ">e</tspan>d when submitting t<tspan x="251.031px " y="0px ">o</tspan> X<tspan x="272.414px " y="0px ">c</tspan>ode.</text>
        </g>
        <g id="template-version" transform="matrix(1,0,0,1,3036,1933)">
            <text x="-96.57px" y="0px" style="font-family:'SFProDisplay-Regular', 'SF Pro Display';font-size:16px;">T<tspan x="-89.383px " y="0px ">e</tspan>mplat<tspan x="-43.664px " y="0px ">e</tspan> v<tspan x="-25.633px " y="0px ">.</tspan>2.0</text>
        </g>
        <g transform="matrix(1,0,0,1,3036,1951)">
            <text x="-191.594px" y="0px" style="font-family:'SFProDisplay-Regular', 'SF Pro Display';font-size:16px;">Requir<tspan x="-148.766px " y="0px ">e</tspan>s X<tspan x="-120.234px " y="0px ">c</tspan>ode 12 or gr<tspan x="-33.938px " y="0px ">e</tspan>at<tspan x="-13.125px " y="0px ">e</tspan>r</text>
        </g>
        <g transform="matrix(1,0,0,1,3036,1969)">
            <text x="-211.172px" y="0px" style="font-family:'SFProDisplay-Regular', 'SF Pro Display';font-size:16px;">Gener<tspan x="-170.273px -162.242px -157.656px " y="0px 0px 0px ">ate</tspan>d fr<tspan x="-127.922px " y="0px ">o</tspan>m squar<tspan x="-66.07px -57.875px -54.906px " y="0px 0px 0px ">e.g</tspan>rid.2x2</text>
        </g>
        <g transform="matrix(1,0,0,1,3036,1987)">
            <text x="-143.117px" y="0px" style="font-family:'SFProDisplay-Regular', 'SF Pro Display';font-size:16px;">T<tspan x="-135.695px " y="0px ">y</tspan>peset at 100 points</text>
        </g>
        <g transform="matrix(1,0,0,1,263,726)">
            <text x="0px" y="0px" style="font-family:'SFProDisplay-Regular', 'SF Pro Display';font-size:16px;">Small</text>
        </g>
        <g transform="matrix(1,0,0,1,263,1156)">
            <text x="0px" y="0px" style="font-family:'SFProDisplay-Regular', 'SF Pro Display';font-size:16px;">Medium</text>
        </g>
        <g transform="matrix(1,0,0,1,263,1586)">
            <text x="0px" y="0px" style="font-family:'SFProDisplay-Regular', 'SF Pro Display';font-size:16px;">Lar<tspan x="20.961px " y="0px ">g</tspan>e</text>
        </g>
    </g>
    <g id="Guides">
        <g id="H-reference" transform="matrix(1,0,0,1,339,696)">
            <path d="M0.977,0L3.662,0L12.988,-24.463L45.752,-24.463L55.127,0L57.764,0L30.615,-70.459L28.125,-70.459L0.977,0ZM29.346,-67.139L29.443,-67.139L44.873,-26.709L13.867,-26.709L29.346,-67.139Z" style="fill:rgb(39,170,225);fill-rule:nonzero;"/>
        </g>
        <path id="Baseline-S" d="M263,696L3036,696" style="fill:none;fill-rule:nonzero;stroke:rgb(39,170,225);stroke-width:0.5px;"/>
        <path id="Capline-S" d="M263,625.541L3036,625.541" style="fill:none;fill-rule:nonzero;stroke:rgb(39,170,225);stroke-width:0.5px;"/>
        <g id="H-reference1" serif:id="H-reference" transform="matrix(1,0,0,1,339,1126)">
            <path d="M0.977,0L3.662,0L12.988,-24.463L45.752,-24.463L55.127,0L57.764,0L30.615,-70.459L28.125,-70.459L0.977,0ZM29.346,-67.139L29.443,-67.139L44.873,-26.709L13.867,-26.709L29.346,-67.139Z" style="fill:rgb(39,170,225);fill-rule:nonzero;"/>
        </g>
        <path id="Baseline-M" d="M263,1126L3036,1126" style="fill:none;fill-rule:nonzero;stroke:rgb(39,170,225);stroke-width:0.5px;"/>
        <path id="Capline-M" d="M263,1055.54L3036,1055.54" style="fill:none;fill-rule:nonzero;stroke:rgb(39,170,225);stroke-width:0.5px;"/>
        <g id="H-reference2" serif:id="H-reference" transform="matrix(1,0,0,1,339,1556)">
            <path d="M0.977,0L3.662,0L12.988,-24.463L45.752,-24.463L55.127,0L57.764,0L30.615,-70.459L28.125,-70.459L0.977,0ZM29.346,-67.139L29.443,-67.139L44.873,-26.709L13.867,-26.709L29.346,-67.139Z" style="fill:rgb(39,170,225);fill-rule:nonzero;"/>
        </g>
        <path id="Baseline-L" d="M263,1556L3036,1556" style="fill:none;fill-rule:nonzero;stroke:rgb(39,170,225);stroke-width:0.5px;"/>
        <path id="Capline-L" d="M263,1485.54L3036,1485.54" style="fill:none;fill-rule:nonzero;stroke:rgb(39,170,225);stroke-width:0.5px;"/>
        <path id="left-margin" d="M1392.45,1030.79L1392.45,1150.12" style="fill:none;fill-rule:nonzero;stroke:rgb(0,174,239);stroke-width:0.5px;"/>
        <path id="right-margin" d="M1507.24,1030.79L1507.24,1150.12" style="fill:none;fill-rule:nonzero;stroke:rgb(0,174,239);stroke-width:0.5px;"/>
    </g>
    <g id="Symbols">
        <g id="Black-L" transform="matrix(-1,0,0,1,3011.19,1556)">
            <path d="M34.961,-39.111L54.981,-39.111C67.871,-39.111 73.877,-45.068 73.877,-58.057L73.877,-77.93C73.877,-90.918 67.871,-96.875 54.981,-96.875L34.961,-96.875C22.022,-96.875 16.064,-90.918 16.064,-77.93L16.064,-58.057C16.064,-45.068 22.022,-39.111 34.961,-39.111ZM100.537,-39.111L120.605,-39.111C133.496,-39.111 139.502,-45.068 139.502,-58.057L139.502,-77.93C139.502,-90.918 133.496,-96.875 120.605,-96.875L100.537,-96.875C87.647,-96.875 81.69,-90.918 81.69,-77.93L81.69,-58.057C81.69,-45.068 87.647,-39.111 100.537,-39.111ZM100.488,-54.785C98.34,-54.785 97.363,-55.762 97.363,-57.959L97.363,-78.076C97.363,-80.176 98.34,-81.201 100.488,-81.201L120.703,-81.201C122.803,-81.201 123.779,-80.176 123.779,-78.076L123.779,-57.959C123.779,-55.762 122.803,-54.785 120.703,-54.785L100.488,-54.785ZM34.961,26.514L54.981,26.514C67.871,26.514 73.877,20.508 73.877,7.52L73.877,-12.305C73.877,-25.293 67.871,-31.299 54.981,-31.299L34.961,-31.299C22.022,-31.299 16.064,-25.293 16.064,-12.305L16.064,7.52C16.064,20.508 22.022,26.514 34.961,26.514ZM100.537,26.514L120.605,26.514C133.496,26.514 139.502,20.508 139.502,7.52L139.502,-12.305C139.502,-25.293 133.496,-31.299 120.605,-31.299L100.537,-31.299C87.647,-31.299 81.69,-25.293 81.69,-12.305L81.69,7.52C81.69,20.508 87.647,26.514 100.537,26.514ZM34.863,10.791C32.764,10.791 31.787,9.814 31.787,7.666L31.787,-12.451C31.787,-14.6 32.764,-15.576 34.863,-15.576L55.078,-15.576C57.178,-15.576 58.154,-14.6 58.154,-12.451L58.154,7.666C58.154,9.814 57.178,10.791 55.078,10.791L34.863,10.791ZM100.488,10.791C98.34,10.791 97.363,9.814 97.363,7.666L97.363,-12.451C97.363,-14.6 98.34,-15.576 100.488,-15.576L120.703,-15.576C122.803,-15.576 123.779,-14.6 123.779,-12.451L123.779,7.666C123.779,9.814 122.803,10.791 120.703,10.791L100.488,10.791Z" style="fill-rule:nonzero;"/>
        </g>
        <g id="Heavy-L" transform="matrix(-1,0,0,1,2713.45,1556)">
            <path d="M33.154,-39.404L55.42,-39.404C67.041,-39.404 72.51,-44.873 72.51,-56.592L72.51,-78.662C72.51,-90.43 67.041,-95.85 55.42,-95.85L33.154,-95.85C21.533,-95.85 16.064,-90.43 16.064,-78.662L16.064,-56.592C16.064,-44.873 21.533,-39.404 33.154,-39.404ZM98.096,-39.404L120.361,-39.404C131.982,-39.404 137.451,-44.873 137.451,-56.592L137.451,-78.662C137.451,-90.43 131.982,-95.85 120.361,-95.85L98.096,-95.85C86.475,-95.85 81.006,-90.43 81.006,-78.662L81.006,-56.592C81.006,-44.873 86.475,-39.404 98.096,-39.404ZM98.047,-53.223C95.801,-53.223 94.824,-54.248 94.824,-56.543L94.824,-78.76C94.824,-81.006 95.801,-82.08 98.047,-82.08L120.41,-82.08C122.607,-82.08 123.633,-81.006 123.633,-78.76L123.633,-56.543C123.633,-54.248 122.607,-53.223 120.41,-53.223L98.047,-53.223ZM33.154,25.488L55.42,25.488C67.041,25.488 72.51,20.068 72.51,8.301L72.51,-13.77C72.51,-25.488 67.041,-30.957 55.42,-30.957L33.154,-30.957C21.533,-30.957 16.064,-25.488 16.064,-13.77L16.064,8.301C16.064,20.068 21.533,25.488 33.154,25.488ZM98.096,25.488L120.361,25.488C131.982,25.488 137.451,20.068 137.451,8.301L137.451,-13.77C137.451,-25.488 131.982,-30.957 120.361,-30.957L98.096,-30.957C86.475,-30.957 81.006,-25.488 81.006,-13.77L81.006,8.301C81.006,20.068 86.475,25.488 98.096,25.488ZM33.106,11.719C30.908,11.719 29.883,10.645 29.883,8.398L29.883,-13.818C29.883,-16.113 30.908,-17.139 33.106,-17.139L55.469,-17.139C57.666,-17.139 58.691,-16.113 58.691,-13.818L58.691,8.398C58.691,10.645 57.666,11.719 55.469,11.719L33.106,11.719ZM98.047,11.719C95.801,11.719 94.824,10.645 94.824,8.398L94.824,-13.818C94.824,-16.113 95.801,-17.139 98.047,-17.139L120.41,-17.139C122.607,-17.139 123.633,-16.113 123.633,-13.818L123.633,8.398C123.633,10.645 122.607,11.719 120.41,11.719L98.047,11.719Z" style="fill-rule:nonzero;"/>
        </g>
        <g id="Bold-L" transform="matrix(-1,0,0,1,2415.59,1556)">
            <path d="M31.104,-39.795L55.957,-39.795C66.113,-39.795 70.996,-44.629 70.996,-54.981L70.996,-79.541C70.996,-89.893 66.113,-94.727 55.957,-94.727L31.104,-94.727C20.947,-94.727 16.064,-89.893 16.064,-79.541L16.064,-54.981C16.064,-44.629 20.947,-39.795 31.104,-39.795ZM95.313,-39.795L120.117,-39.795C130.273,-39.795 135.156,-44.629 135.156,-54.981L135.156,-79.541C135.156,-89.893 130.273,-94.727 120.117,-94.727L95.313,-94.727C85.107,-94.727 80.225,-89.893 80.225,-79.541L80.225,-54.981C80.225,-44.629 85.107,-39.795 95.313,-39.795ZM95.313,-51.465C92.969,-51.465 91.943,-52.588 91.943,-54.981L91.943,-79.59C91.943,-81.934 92.969,-83.057 95.313,-83.057L120.117,-83.057C122.412,-83.057 123.486,-81.934 123.486,-79.59L123.486,-54.981C123.486,-52.588 122.412,-51.465 120.117,-51.465L95.313,-51.465ZM31.104,24.365L55.957,24.365C66.113,24.365 70.996,19.531 70.996,9.18L70.996,-15.332C70.996,-25.732 66.113,-30.566 55.957,-30.566L31.104,-30.566C20.947,-30.566 16.064,-25.732 16.064,-15.332L16.064,9.18C16.064,19.531 20.947,24.365 31.104,24.365ZM95.313,24.365L120.117,24.365C130.273,24.365 135.156,19.531 135.156,9.18L135.156,-15.332C135.156,-25.732 130.273,-30.566 120.117,-30.566L95.313,-30.566C85.107,-30.566 80.225,-25.732 80.225,-15.332L80.225,9.18C80.225,19.531 85.107,24.365 95.313,24.365ZM31.104,12.695C28.809,12.695 27.734,11.572 27.734,9.229L27.734,-15.381C27.734,-17.773 28.809,-18.848 31.104,-18.848L55.908,-18.848C58.203,-18.848 59.326,-17.773 59.326,-15.381L59.326,9.229C59.326,11.572 58.203,12.695 55.908,12.695L31.104,12.695ZM95.313,12.695C92.969,12.695 91.943,11.572 91.943,9.229L91.943,-15.381C91.943,-17.773 92.969,-18.848 95.313,-18.848L120.117,-18.848C122.412,-18.848 123.486,-17.773 123.486,-15.381L123.486,9.229C123.486,11.572 122.412,12.695 120.117,12.695L95.313,12.695Z" style="fill-rule:nonzero;"/>
        </g>
        <g id="Semibold-L" transform="matrix(-1,0,0,1,2118.1,1556)">
            <path d="M29.736,-40.039L56.299,-40.039C65.478,-40.039 69.922,-44.434 69.922,-53.857L69.922,-80.127C69.922,-89.551 65.478,-93.945 56.299,-93.945L29.736,-93.945C20.557,-93.945 16.064,-89.551 16.064,-80.127L16.064,-53.857C16.064,-44.434 20.557,-40.039 29.736,-40.039ZM93.359,-40.039L119.922,-40.039C129.102,-40.039 133.594,-44.434 133.594,-53.857L133.594,-80.127C133.594,-89.551 129.102,-93.945 119.922,-93.945L93.359,-93.945C84.18,-93.945 79.736,-89.551 79.736,-80.127L79.736,-53.857C79.736,-44.434 84.18,-40.039 93.359,-40.039ZM93.457,-50.293C91.016,-50.293 89.941,-51.416 89.941,-53.857L89.941,-80.127C89.941,-82.568 91.016,-83.691 93.457,-83.691L119.873,-83.691C122.266,-83.691 123.389,-82.568 123.389,-80.127L123.389,-53.857C123.389,-51.416 122.266,-50.293 119.873,-50.293L93.457,-50.293ZM29.736,23.584L56.299,23.584C65.478,23.584 69.922,19.19 69.922,9.766L69.922,-16.455C69.922,-25.879 65.478,-30.273 56.299,-30.273L29.736,-30.273C20.557,-30.273 16.064,-25.879 16.064,-16.455L16.064,9.766C16.064,19.19 20.557,23.584 29.736,23.584ZM93.359,23.584L119.922,23.584C129.102,23.584 133.594,19.19 133.594,9.766L133.594,-16.455C133.594,-25.879 129.102,-30.273 119.922,-30.273L93.359,-30.273C84.18,-30.273 79.736,-25.879 79.736,-16.455L79.736,9.766C79.736,19.19 84.18,23.584 93.359,23.584ZM29.785,13.379C27.393,13.379 26.27,12.256 26.27,9.814L26.27,-16.455C26.27,-18.945 27.393,-20.068 29.785,-20.068L56.201,-20.068C58.594,-20.068 59.717,-18.945 59.717,-16.455L59.717,9.814C59.717,12.256 58.594,13.379 56.201,13.379L29.785,13.379ZM93.457,13.379C91.016,13.379 89.941,12.256 89.941,9.814L89.941,-16.455C89.941,-18.945 91.016,-20.068 93.457,-20.068L119.873,-20.068C122.266,-20.068 123.389,-18.945 123.389,-16.455L123.389,9.814C123.389,12.256 122.266,13.379 119.873,13.379L93.457,13.379Z" style="fill-rule:nonzero;"/>
        </g>
        <g id="Medium-L" transform="matrix(-1,0,0,1,1820.8,1556)">
            <path d="M28.662,-40.234L56.543,-40.234C64.99,-40.234 69.141,-44.336 69.141,-53.027L69.141,-80.566C69.141,-89.258 64.99,-93.311 56.543,-93.311L28.662,-93.311C20.264,-93.311 16.064,-89.258 16.064,-80.566L16.064,-53.027C16.064,-44.336 20.264,-40.234 28.662,-40.234ZM91.894,-40.234L119.824,-40.234C128.223,-40.234 132.422,-44.336 132.422,-53.027L132.422,-80.566C132.422,-89.258 128.223,-93.311 119.824,-93.311L91.894,-93.311C83.496,-93.311 79.297,-89.258 79.297,-80.566L79.297,-53.027C79.297,-44.336 83.496,-40.234 91.894,-40.234ZM92.041,-49.365C89.551,-49.365 88.428,-50.537 88.428,-53.076L88.428,-80.566C88.428,-83.057 89.551,-84.229 92.041,-84.229L119.727,-84.229C122.168,-84.229 123.291,-83.057 123.291,-80.566L123.291,-53.076C123.291,-50.537 122.168,-49.365 119.727,-49.365L92.041,-49.365ZM28.662,22.998L56.543,22.998C64.99,22.998 69.141,18.945 69.141,10.205L69.141,-17.285C69.141,-26.025 64.99,-30.078 56.543,-30.078L28.662,-30.078C20.264,-30.078 16.064,-26.025 16.064,-17.285L16.064,10.205C16.064,18.945 20.264,22.998 28.662,22.998ZM91.894,22.998L119.824,22.998C128.223,22.998 132.422,18.945 132.422,10.205L132.422,-17.285C132.422,-26.025 128.223,-30.078 119.824,-30.078L91.894,-30.078C83.496,-30.078 79.297,-26.025 79.297,-17.285L79.297,10.205C79.297,18.945 83.496,22.998 91.894,22.998ZM28.76,13.916C26.27,13.916 25.195,12.744 25.195,10.254L25.195,-17.285C25.195,-19.824 26.27,-20.947 28.76,-20.947L56.445,-20.947C58.887,-20.947 60.059,-19.824 60.059,-17.285L60.059,10.254C60.059,12.744 58.887,13.916 56.445,13.916L28.76,13.916ZM92.041,13.916C89.551,13.916 88.428,12.744 88.428,10.254L88.428,-17.285C88.428,-19.824 89.551,-20.947 92.041,-20.947L119.727,-20.947C122.168,-20.947 123.291,-19.824 123.291,-17.285L123.291,10.254C123.291,12.744 122.168,13.916 119.727,13.916L92.041,13.916Z" style="fill-rule:nonzero;"/>
        </g>
        <g id="Regular-L" transform="matrix(-1,0,0,1,1523.3,1556)">
            <path d="M27.295,-40.527L56.885,-40.527C64.307,-40.527 68.115,-44.141 68.115,-51.904L68.115,-81.152C68.115,-88.916 64.307,-92.529 56.885,-92.529L27.295,-92.529C19.873,-92.529 16.064,-88.916 16.064,-81.152L16.064,-51.904C16.064,-44.141 19.873,-40.527 27.295,-40.527ZM90.039,-40.527L119.629,-40.527C127.051,-40.527 130.859,-44.141 130.859,-51.904L130.859,-81.152C130.859,-88.916 127.051,-92.529 119.629,-92.529L90.039,-92.529C82.568,-92.529 78.809,-88.916 78.809,-81.152L78.809,-51.904C78.809,-44.141 82.568,-40.527 90.039,-40.527ZM90.186,-48.145C87.598,-48.145 86.475,-49.365 86.475,-52.002L86.475,-81.104C86.475,-83.691 87.598,-84.863 90.186,-84.863L119.531,-84.863C122.021,-84.863 123.193,-83.691 123.193,-81.104L123.193,-52.002C123.193,-49.365 122.021,-48.145 119.531,-48.145L90.186,-48.145ZM27.295,22.217L56.885,22.217C64.307,22.217 68.115,18.604 68.115,10.84L68.115,-18.408C68.115,-26.172 64.307,-29.834 56.885,-29.834L27.295,-29.834C19.873,-29.834 16.064,-26.172 16.064,-18.408L16.064,10.84C16.064,18.604 19.873,22.217 27.295,22.217ZM90.039,22.217L119.629,22.217C127.051,22.217 130.859,18.604 130.859,10.84L130.859,-18.408C130.859,-26.172 127.051,-29.834 119.629,-29.834L90.039,-29.834C82.568,-29.834 78.809,-26.172 78.809,-18.408L78.809,10.84C78.809,18.604 82.568,22.217 90.039,22.217ZM27.393,14.551C24.902,14.551 23.731,13.379 23.731,10.791L23.731,-18.359C23.731,-20.947 24.902,-22.168 27.393,-22.168L56.738,-22.168C59.228,-22.168 60.449,-20.947 60.449,-18.359L60.449,10.791C60.449,13.379 59.228,14.551 56.738,14.551L27.393,14.551ZM90.186,14.551C87.598,14.551 86.475,13.379 86.475,10.791L86.475,-18.359C86.475,-20.947 87.598,-22.168 90.186,-22.168L119.531,-22.168C122.021,-22.168 123.193,-20.947 123.193,-18.359L123.193,10.791C123.193,13.379 122.021,14.551 119.531,14.551L90.186,14.551Z" style="fill-rule:nonzero;"/>
        </g>
        <g id="Light-L" transform="matrix(-1,0,0,1,1225.76,1556)">
            <path d="M26.172,-40.674L57.031,-40.674C63.672,-40.674 67.09,-43.848 67.09,-50.879L67.09,-81.494C67.09,-88.525 63.672,-91.699 57.031,-91.699L26.172,-91.699C19.531,-91.699 16.064,-88.525 16.064,-81.494L16.064,-50.879C16.064,-43.848 19.531,-40.674 26.172,-40.674ZM88.232,-40.674L119.092,-40.674C125.732,-40.674 129.199,-43.848 129.199,-50.879L129.199,-81.494C129.199,-88.525 125.732,-91.699 119.092,-91.699L88.232,-91.699C81.592,-91.699 78.125,-88.525 78.125,-81.494L78.125,-50.879C78.125,-43.848 81.592,-40.674 88.232,-40.674ZM88.379,-46.631C85.4,-46.631 84.131,-47.949 84.131,-50.977L84.131,-81.397C84.131,-84.424 85.4,-85.693 88.379,-85.693L118.945,-85.693C121.924,-85.693 123.193,-84.424 123.193,-81.397L123.193,-50.977C123.193,-47.949 121.924,-46.631 118.945,-46.631L88.379,-46.631ZM26.172,21.436L57.031,21.436C63.672,21.436 67.09,18.213 67.09,11.23L67.09,-19.434C67.09,-26.465 63.672,-29.639 57.031,-29.639L26.172,-29.639C19.531,-29.639 16.064,-26.465 16.064,-19.434L16.064,11.23C16.064,18.213 19.531,21.436 26.172,21.436ZM88.232,21.436L119.092,21.436C125.732,21.436 129.199,18.213 129.199,11.23L129.199,-19.434C129.199,-26.465 125.732,-29.639 119.092,-29.639L88.232,-29.639C81.592,-29.639 78.125,-26.465 78.125,-19.434L78.125,11.23C78.125,18.213 81.592,21.436 88.232,21.436ZM26.27,15.43C23.34,15.43 22.07,14.111 22.07,11.133L22.07,-19.336C22.07,-22.315 23.34,-23.633 26.27,-23.633L56.885,-23.633C59.815,-23.633 61.133,-22.315 61.133,-19.336L61.133,11.133C61.133,14.111 59.815,15.43 56.885,15.43L26.27,15.43ZM88.379,15.43C85.4,15.43 84.131,14.111 84.131,11.133L84.131,-19.336C84.131,-22.315 85.4,-23.633 88.379,-23.633L118.945,-23.633C121.924,-23.633 123.193,-22.315 123.193,-19.336L123.193,11.133C123.193,14.111 121.924,15.43 118.945,15.43L88.379,15.43Z" style="fill-rule:nonzero;"/>
        </g>
        <g id="Thin-L" transform="matrix(-1,0,0,1,927.955,1556)">
            <path d="M24.658,-40.869L57.178,-40.869C62.793,-40.869 65.772,-43.408 65.772,-49.463L65.772,-81.934C65.772,-87.988 62.793,-90.576 57.178,-90.576L24.658,-90.576C19.092,-90.576 16.064,-87.988 16.064,-81.934L16.064,-49.463C16.064,-43.408 19.092,-40.869 24.658,-40.869ZM85.84,-40.869L118.408,-40.869C123.975,-40.869 127.002,-43.408 127.002,-49.463L127.002,-81.934C127.002,-87.988 123.975,-90.576 118.408,-90.576L85.84,-90.576C80.273,-90.576 77.246,-87.988 77.246,-81.934L77.246,-49.463C77.246,-43.408 80.273,-40.869 85.84,-40.869ZM86.035,-44.629C82.471,-44.629 81.055,-46.045 81.055,-49.609L81.055,-81.787C81.055,-85.352 82.471,-86.768 86.035,-86.768L118.213,-86.768C121.777,-86.768 123.193,-85.352 123.193,-81.787L123.193,-49.609C123.193,-46.045 121.777,-44.629 118.213,-44.629L86.035,-44.629ZM24.658,20.361L57.178,20.361C62.793,20.361 65.772,17.773 65.772,11.719L65.772,-20.752C65.772,-26.807 62.793,-29.395 57.178,-29.395L24.658,-29.395C19.092,-29.395 16.064,-26.807 16.064,-20.752L16.064,11.719C16.064,17.773 19.092,20.361 24.658,20.361ZM85.84,20.361L118.408,20.361C123.975,20.361 127.002,17.773 127.002,11.719L127.002,-20.752C127.002,-26.807 123.975,-29.395 118.408,-29.395L85.84,-29.395C80.273,-29.395 77.246,-26.807 77.246,-20.752L77.246,11.719C77.246,17.773 80.273,20.361 85.84,20.361ZM24.805,16.553C21.289,16.553 19.873,15.137 19.873,11.572L19.873,-20.606C19.873,-24.17 21.289,-25.586 24.805,-25.586L57.031,-25.586C60.596,-25.586 62.012,-24.17 62.012,-20.606L62.012,11.572C62.012,15.137 60.596,16.553 57.031,16.553L24.805,16.553ZM86.035,16.553C82.471,16.553 81.055,15.137 81.055,11.572L81.055,-20.606C81.055,-24.17 82.471,-25.586 86.035,-25.586L118.213,-25.586C121.777,-25.586 123.193,-24.17 123.193,-20.606L123.193,11.572C123.193,15.137 121.777,16.553 118.213,16.553L86.035,16.553Z" style="fill-rule:nonzero;"/>
        </g>
        <g id="Ultralight-L" transform="matrix(-1,0,0,1,630.682,1556)">
            <path d="M23.877,-40.967L57.275,-40.967C62.353,-40.967 65.137,-43.213 65.137,-48.779L65.137,-82.178C65.137,-87.744 62.353,-89.99 57.275,-89.99L23.877,-89.99C18.848,-89.99 16.064,-87.744 16.064,-82.178L16.064,-48.779C16.064,-43.213 18.848,-40.967 23.877,-40.967ZM84.619,-40.967L118.018,-40.967C123.047,-40.967 125.879,-43.213 125.879,-48.779L125.879,-82.178C125.879,-87.744 123.047,-89.99 118.018,-89.99L84.619,-89.99C79.59,-89.99 76.807,-87.744 76.807,-82.178L76.807,-48.779C76.807,-43.213 79.59,-40.967 84.619,-40.967ZM84.815,-43.603C80.957,-43.603 79.492,-45.117 79.492,-48.926L79.492,-82.031C79.492,-85.84 80.957,-87.305 84.815,-87.305L117.871,-87.305C121.68,-87.305 123.193,-85.84 123.193,-82.031L123.193,-48.926C123.193,-45.117 121.68,-43.603 117.871,-43.603L84.815,-43.603ZM23.877,19.775L57.275,19.775C62.353,19.775 65.137,17.529 65.137,11.963L65.137,-21.436C65.137,-27.002 62.353,-29.248 57.275,-29.248L23.877,-29.248C18.848,-29.248 16.064,-27.002 16.064,-21.436L16.064,11.963C16.064,17.529 18.848,19.775 23.877,19.775ZM84.619,19.775L118.018,19.775C123.047,19.775 125.879,17.529 125.879,11.963L125.879,-21.436C125.879,-27.002 123.047,-29.248 118.018,-29.248L84.619,-29.248C79.59,-29.248 76.807,-27.002 76.807,-21.436L76.807,11.963C76.807,17.529 79.59,19.775 84.619,19.775ZM24.072,17.139C20.215,17.139 18.75,15.625 18.75,11.816L18.75,-21.289C18.75,-25.098 20.215,-26.563 24.072,-26.563L57.129,-26.563C60.986,-26.563 62.451,-25.098 62.451,-21.289L62.451,11.816C62.451,15.625 60.986,17.139 57.129,17.139L24.072,17.139ZM84.815,17.139C80.957,17.139 79.492,15.625 79.492,11.816L79.492,-21.289C79.492,-25.098 80.957,-26.563 84.815,-26.563L117.871,-26.563C121.68,-26.563 123.193,-25.098 123.193,-21.289L123.193,11.816C123.193,15.625 121.68,17.139 117.871,17.139L84.815,17.139Z" style="fill-rule:nonzero;"/>
        </g>
        <g id="Black-M" transform="matrix(-1,0,0,1,2994.6,1126)">
            <path d="M28.955,-37.842L42.09,-37.842C53.418,-37.842 58.545,-43.018 58.545,-54.346L58.545,-67.481C58.545,-78.809 53.418,-83.936 42.09,-83.936L28.955,-83.936C17.627,-83.936 12.451,-78.809 12.451,-67.481L12.451,-54.346C12.451,-43.018 17.627,-37.842 28.955,-37.842ZM80.322,-37.842L93.457,-37.842C104.785,-37.842 109.961,-43.018 109.961,-54.346L109.961,-67.481C109.961,-78.809 104.785,-83.936 93.457,-83.936L80.322,-83.936C68.994,-83.936 63.867,-78.809 63.867,-67.481L63.867,-54.346C63.867,-43.018 68.994,-37.842 80.322,-37.842ZM80.225,-51.709C78.467,-51.709 77.686,-52.441 77.686,-54.199L77.686,-67.578C77.686,-69.336 78.467,-70.117 80.225,-70.117L93.604,-70.117C95.361,-70.117 96.094,-69.336 96.094,-67.578L96.094,-54.199C96.094,-52.441 95.361,-51.709 93.604,-51.709L80.225,-51.709ZM28.955,13.574L42.09,13.574C53.418,13.574 58.545,8.398 58.545,-2.93L58.545,-16.064C58.545,-27.393 53.418,-32.568 42.09,-32.568L28.955,-32.568C17.627,-32.568 12.451,-27.393 12.451,-16.064L12.451,-2.93C12.451,8.398 17.627,13.574 28.955,13.574ZM80.322,13.574L93.457,13.574C104.785,13.574 109.961,8.398 109.961,-2.93L109.961,-16.064C109.961,-27.393 104.785,-32.568 93.457,-32.568L80.322,-32.568C68.994,-32.568 63.867,-27.393 63.867,-16.064L63.867,-2.93C63.867,8.398 68.994,13.574 80.322,13.574ZM28.809,-0.293C27.051,-0.293 26.318,-1.025 26.318,-2.783L26.318,-16.211C26.318,-17.969 27.051,-18.701 28.809,-18.701L42.188,-18.701C43.945,-18.701 44.727,-17.969 44.727,-16.211L44.727,-2.783C44.727,-1.025 43.945,-0.293 42.188,-0.293L28.809,-0.293ZM80.225,-0.293C78.467,-0.293 77.686,-1.025 77.686,-2.783L77.686,-16.211C77.686,-17.969 78.467,-18.701 80.225,-18.701L93.604,-18.701C95.361,-18.701 96.094,-17.969 96.094,-16.211L96.094,-2.783C96.094,-1.025 95.361,-0.293 93.604,-0.293L80.225,-0.293Z" style="fill-rule:nonzero;"/>
        </g>
        <g id="Heavy-M" transform="matrix(-1,0,0,1,2697,1126)">
            <path d="M27.246,-38.184L42.529,-38.184C52.637,-38.184 57.324,-42.822 57.324,-53.027L57.324,-68.213C57.324,-78.369 52.637,-83.057 42.529,-83.057L27.246,-83.057C17.139,-83.057 12.451,-78.369 12.451,-68.213L12.451,-53.027C12.451,-42.822 17.139,-38.184 27.246,-38.184ZM78.076,-38.184L93.359,-38.184C103.467,-38.184 108.154,-42.822 108.154,-53.027L108.154,-68.213C108.154,-78.369 103.467,-83.057 93.359,-83.057L78.076,-83.057C67.969,-83.057 63.281,-78.369 63.281,-68.213L63.281,-53.027C63.281,-42.822 67.969,-38.184 78.076,-38.184ZM78.027,-50.391C76.269,-50.391 75.488,-51.172 75.488,-52.93L75.488,-68.311C75.488,-70.068 76.269,-70.85 78.027,-70.85L93.457,-70.85C95.166,-70.85 95.947,-70.068 95.947,-68.311L95.947,-52.93C95.947,-51.172 95.166,-50.391 93.457,-50.391L78.027,-50.391ZM27.246,12.647L42.529,12.647C52.637,12.647 57.324,8.008 57.324,-2.197L57.324,-17.383C57.324,-27.539 52.637,-32.227 42.529,-32.227L27.246,-32.227C17.139,-32.227 12.451,-27.539 12.451,-17.383L12.451,-2.197C12.451,8.008 17.139,12.647 27.246,12.647ZM78.076,12.647L93.359,12.647C103.467,12.647 108.154,8.008 108.154,-2.197L108.154,-17.383C108.154,-27.539 103.467,-32.227 93.359,-32.227L78.076,-32.227C67.969,-32.227 63.281,-27.539 63.281,-17.383L63.281,-2.197C63.281,8.008 67.969,12.647 78.076,12.647ZM27.148,0.439C25.44,0.439 24.658,-0.342 24.658,-2.051L24.658,-17.481C24.658,-19.238 25.44,-20.02 27.148,-20.02L42.627,-20.02C44.336,-20.02 45.117,-19.238 45.117,-17.481L45.117,-2.051C45.117,-0.342 44.336,0.439 42.627,0.439L27.148,0.439ZM78.027,0.439C76.269,0.439 75.488,-0.342 75.488,-2.051L75.488,-17.481C75.488,-19.238 76.269,-20.02 78.027,-20.02L93.457,-20.02C95.166,-20.02 95.947,-19.238 95.947,-17.481L95.947,-2.051C95.947,-0.342 95.166,0.439 93.457,0.439L78.027,0.439Z" style="fill-rule:nonzero;"/>
        </g>
        <g id="Bold-M" transform="matrix(-1,0,0,1,2399.28,1126)">
            <path d="M25.342,-38.525L43.066,-38.525C51.807,-38.525 55.957,-42.676 55.957,-51.563L55.957,-69.043C55.957,-77.93 51.807,-82.031 43.066,-82.031L25.342,-82.031C16.602,-82.031 12.451,-77.93 12.451,-69.043L12.451,-51.563C12.451,-42.676 16.602,-38.525 25.342,-38.525ZM75.537,-38.525L93.262,-38.525C102.002,-38.525 106.152,-42.676 106.152,-51.563L106.152,-69.043C106.152,-77.93 102.002,-82.031 93.262,-82.031L75.537,-82.031C66.797,-82.031 62.647,-77.93 62.647,-69.043L62.647,-51.563C62.647,-42.676 66.797,-38.525 75.537,-38.525ZM75.537,-48.926C73.828,-48.926 72.998,-49.707 72.998,-51.514L72.998,-69.092C72.998,-70.85 73.828,-71.68 75.537,-71.68L93.262,-71.68C95.019,-71.68 95.801,-70.85 95.801,-69.092L95.801,-51.514C95.801,-49.707 95.019,-48.926 93.262,-48.926L75.537,-48.926ZM25.342,11.67L43.066,11.67C51.807,11.67 55.957,7.52 55.957,-1.318L55.957,-18.848C55.957,-27.734 51.807,-31.836 43.066,-31.836L25.342,-31.836C16.602,-31.836 12.451,-27.734 12.451,-18.848L12.451,-1.318C12.451,7.52 16.602,11.67 25.342,11.67ZM75.537,11.67L93.262,11.67C102.002,11.67 106.152,7.52 106.152,-1.318L106.152,-18.848C106.152,-27.734 102.002,-31.836 93.262,-31.836L75.537,-31.836C66.797,-31.836 62.647,-27.734 62.647,-18.848L62.647,-1.318C62.647,7.52 66.797,11.67 75.537,11.67ZM25.342,1.27C23.584,1.27 22.803,0.488 22.803,-1.27L22.803,-18.897C22.803,-20.654 23.584,-21.484 25.342,-21.484L43.066,-21.484C44.775,-21.484 45.606,-20.654 45.606,-18.897L45.606,-1.27C45.606,0.488 44.775,1.27 43.066,1.27L25.342,1.27ZM75.537,1.27C73.828,1.27 72.998,0.488 72.998,-1.27L72.998,-18.897C72.998,-20.654 73.828,-21.484 75.537,-21.484L93.262,-21.484C95.019,-21.484 95.801,-20.654 95.801,-18.897L95.801,-1.27C95.801,0.488 95.019,1.27 93.262,1.27L75.537,1.27Z" style="fill-rule:nonzero;"/>
        </g>
        <g id="Semibold-M" transform="matrix(-1,0,0,1,2101.89,1126)">
            <path d="M24.072,-38.77L43.408,-38.77C51.221,-38.77 55.029,-42.529 55.029,-50.537L55.029,-69.629C55.029,-77.588 51.221,-81.348 43.408,-81.348L24.072,-81.348C16.211,-81.348 12.451,-77.588 12.451,-69.629L12.451,-50.537C12.451,-42.529 16.211,-38.77 24.072,-38.77ZM73.828,-38.77L93.164,-38.77C101.025,-38.77 104.785,-42.529 104.785,-50.537L104.785,-69.629C104.785,-77.588 101.025,-81.348 93.164,-81.348L73.828,-81.348C65.967,-81.348 62.207,-77.588 62.207,-69.629L62.207,-50.537C62.207,-42.529 65.967,-38.77 73.828,-38.77ZM73.877,-47.9C72.119,-47.9 71.289,-48.731 71.289,-50.488L71.289,-69.678C71.289,-71.436 72.119,-72.266 73.877,-72.266L93.164,-72.266C94.873,-72.266 95.654,-71.436 95.654,-69.678L95.654,-50.488C95.654,-48.731 94.873,-47.9 93.164,-47.9L73.877,-47.9ZM24.072,10.986L43.408,10.986C51.221,10.986 55.029,7.227 55.029,-0.781L55.029,-19.824C55.029,-27.832 51.221,-31.592 43.408,-31.592L24.072,-31.592C16.211,-31.592 12.451,-27.832 12.451,-19.824L12.451,-0.781C12.451,7.227 16.211,10.986 24.072,10.986ZM73.828,10.986L93.164,10.986C101.025,10.986 104.785,7.227 104.785,-0.781L104.785,-19.824C104.785,-27.832 101.025,-31.592 93.164,-31.592L73.828,-31.592C65.967,-31.592 62.207,-27.832 62.207,-19.824L62.207,-0.781C62.207,7.227 65.967,10.986 73.828,10.986ZM24.072,1.855C22.363,1.855 21.533,1.025 21.533,-0.732L21.533,-19.873C21.533,-21.631 22.363,-22.51 24.072,-22.51L43.359,-22.51C45.068,-22.51 45.898,-21.631 45.898,-19.873L45.898,-0.732C45.898,1.025 45.068,1.855 43.359,1.855L24.072,1.855ZM73.877,1.855C72.119,1.855 71.289,1.025 71.289,-0.732L71.289,-19.873C71.289,-21.631 72.119,-22.51 73.877,-22.51L93.164,-22.51C94.873,-22.51 95.654,-21.631 95.654,-19.873L95.654,-0.732C95.654,1.025 94.873,1.855 93.164,1.855L73.877,1.855Z" style="fill-rule:nonzero;"/>
        </g>
        <g id="Medium-M" transform="matrix(-1,0,0,1,1804.63,1126)">
            <path d="M23.096,-38.965L43.652,-38.965C50.781,-38.965 54.297,-42.432 54.297,-49.756L54.297,-70.019C54.297,-77.344 50.781,-80.811 43.652,-80.811L23.096,-80.811C15.918,-80.811 12.451,-77.344 12.451,-70.019L12.451,-49.756C12.451,-42.432 15.918,-38.965 23.096,-38.965ZM72.51,-38.965L93.115,-38.965C100.244,-38.965 103.711,-42.432 103.711,-49.756L103.711,-70.019C103.711,-77.344 100.244,-80.811 93.115,-80.811L72.51,-80.811C65.381,-80.811 61.865,-77.344 61.865,-70.019L61.865,-49.756C61.865,-42.432 65.381,-38.965 72.51,-38.965ZM72.559,-47.119C70.85,-47.119 70.019,-47.998 70.019,-49.756L70.019,-70.068C70.019,-71.826 70.85,-72.705 72.559,-72.705L93.066,-72.705C94.775,-72.705 95.606,-71.826 95.606,-70.068L95.606,-49.756C95.606,-47.998 94.775,-47.119 93.066,-47.119L72.559,-47.119ZM23.096,10.449L43.652,10.449C50.781,10.449 54.297,6.982 54.297,-0.342L54.297,-20.606C54.297,-27.93 50.781,-31.397 43.652,-31.397L23.096,-31.397C15.918,-31.397 12.451,-27.93 12.451,-20.606L12.451,-0.342C12.451,6.982 15.918,10.449 23.096,10.449ZM72.51,10.449L93.115,10.449C100.244,10.449 103.711,6.982 103.711,-0.342L103.711,-20.606C103.711,-27.93 100.244,-31.397 93.115,-31.397L72.51,-31.397C65.381,-31.397 61.865,-27.93 61.865,-20.606L61.865,-0.342C61.865,6.982 65.381,10.449 72.51,10.449ZM23.096,2.295C21.387,2.295 20.606,1.465 20.606,-0.293L20.606,-20.606C20.606,-22.412 21.387,-23.242 23.096,-23.242L43.603,-23.242C45.313,-23.242 46.143,-22.412 46.143,-20.606L46.143,-0.293C46.143,1.465 45.313,2.295 43.603,2.295L23.096,2.295ZM72.559,2.295C70.85,2.295 70.019,1.465 70.019,-0.293L70.019,-20.606C70.019,-22.412 70.85,-23.242 72.559,-23.242L93.066,-23.242C94.775,-23.242 95.606,-22.412 95.606,-20.606L95.606,-0.293C95.606,1.465 94.775,2.295 93.066,2.295L72.559,2.295Z" style="fill-rule:nonzero;"/>
        </g>
        <g id="Regular-M" transform="matrix(-1,0,0,1,1507.25,1126)">
            <path d="M21.777,-39.209L44.043,-39.209C50.244,-39.209 53.369,-42.334 53.369,-48.779L53.369,-70.606C53.369,-77.051 50.244,-80.127 44.043,-80.127L21.777,-80.127C15.576,-80.127 12.451,-77.051 12.451,-70.606L12.451,-48.779C12.451,-42.334 15.576,-39.209 21.777,-39.209ZM70.801,-39.209L93.018,-39.209C99.219,-39.209 102.344,-42.334 102.344,-48.779L102.344,-70.606C102.344,-77.051 99.219,-80.127 93.018,-80.127L70.801,-80.127C64.551,-80.127 61.426,-77.051 61.426,-70.606L61.426,-48.779C61.426,-42.334 64.551,-39.209 70.801,-39.209ZM70.898,-46.094C69.141,-46.094 68.311,-46.973 68.311,-48.779L68.311,-70.606C68.311,-72.363 69.141,-73.242 70.898,-73.242L92.92,-73.242C94.629,-73.242 95.459,-72.363 95.459,-70.606L95.459,-48.779C95.459,-46.973 94.629,-46.094 92.92,-46.094L70.898,-46.094ZM21.777,9.766L44.043,9.766C50.244,9.766 53.369,6.689 53.369,0.244L53.369,-21.631C53.369,-28.027 50.244,-31.152 44.043,-31.152L21.777,-31.152C15.576,-31.152 12.451,-28.027 12.451,-21.631L12.451,0.244C12.451,6.689 15.576,9.766 21.777,9.766ZM70.801,9.766L93.018,9.766C99.219,9.766 102.344,6.689 102.344,0.244L102.344,-21.631C102.344,-28.027 99.219,-31.152 93.018,-31.152L70.801,-31.152C64.551,-31.152 61.426,-28.027 61.426,-21.631L61.426,0.244C61.426,6.689 64.551,9.766 70.801,9.766ZM21.875,2.881C20.166,2.881 19.336,2.002 19.336,0.244L19.336,-21.582C19.336,-23.389 20.166,-24.268 21.875,-24.268L43.897,-24.268C45.606,-24.268 46.484,-23.389 46.484,-21.582L46.484,0.244C46.484,2.002 45.606,2.881 43.897,2.881L21.875,2.881ZM70.898,2.881C69.141,2.881 68.311,2.002 68.311,0.244L68.311,-21.582C68.311,-23.389 69.141,-24.268 70.898,-24.268L92.92,-24.268C94.629,-24.268 95.459,-23.389 95.459,-21.582L95.459,0.244C95.459,2.002 94.629,2.881 92.92,2.881L70.898,2.881Z" style="fill-rule:nonzero;"/>
        </g>
        <g id="Light-M" transform="matrix(-1,0,0,1,1209.8,1126)">
            <path d="M20.752,-39.356L44.141,-39.356C49.658,-39.356 52.441,-42.041 52.441,-47.803L52.441,-70.898C52.441,-76.709 49.658,-79.394 44.141,-79.394L20.752,-79.394C15.283,-79.394 12.451,-76.709 12.451,-70.898L12.451,-47.803C12.451,-42.041 15.283,-39.356 20.752,-39.356ZM69.19,-39.356L92.529,-39.356C98.047,-39.356 100.879,-42.041 100.879,-47.803L100.879,-70.898C100.879,-76.709 98.047,-79.394 92.529,-79.394L69.19,-79.394C63.672,-79.394 60.84,-76.709 60.84,-70.898L60.84,-47.803C60.84,-42.041 63.672,-39.356 69.19,-39.356ZM69.287,-44.775C67.188,-44.775 66.26,-45.703 66.26,-47.9L66.26,-70.898C66.26,-72.998 67.188,-73.975 69.287,-73.975L92.432,-73.975C94.531,-73.975 95.459,-72.998 95.459,-70.898L95.459,-47.9C95.459,-45.703 94.531,-44.775 92.432,-44.775L69.287,-44.775ZM20.752,9.033L44.141,9.033C49.658,9.033 52.441,6.348 52.441,0.586L52.441,-22.51C52.441,-28.272 49.658,-30.957 44.141,-30.957L20.752,-30.957C15.283,-30.957 12.451,-28.272 12.451,-22.51L12.451,0.586C12.451,6.348 15.283,9.033 20.752,9.033ZM69.19,9.033L92.529,9.033C98.047,9.033 100.879,6.348 100.879,0.586L100.879,-22.51C100.879,-28.272 98.047,-30.957 92.529,-30.957L69.19,-30.957C63.672,-30.957 60.84,-28.272 60.84,-22.51L60.84,0.586C60.84,6.348 63.672,9.033 69.19,9.033ZM20.85,3.662C18.75,3.662 17.822,2.686 17.822,0.537L17.822,-22.461C17.822,-24.609 18.75,-25.586 20.85,-25.586L43.994,-25.586C46.094,-25.586 47.07,-24.609 47.07,-22.461L47.07,0.537C47.07,2.686 46.094,3.662 43.994,3.662L20.85,3.662ZM69.287,3.662C67.188,3.662 66.26,2.686 66.26,0.537L66.26,-22.461C66.26,-24.609 67.188,-25.586 69.287,-25.586L92.432,-25.586C94.531,-25.586 95.459,-24.609 95.459,-22.461L95.459,0.537C95.459,2.686 94.531,3.662 92.432,3.662L69.287,3.662Z" style="fill-rule:nonzero;"/>
        </g>
        <g id="Thin-M" transform="matrix(-1,0,0,1,912.086,1126)">
            <path d="M19.434,-39.551L44.287,-39.551C48.828,-39.551 51.27,-41.65 51.27,-46.582L51.27,-71.338C51.27,-76.221 48.828,-78.369 44.287,-78.369L19.434,-78.369C14.893,-78.369 12.451,-76.221 12.451,-71.338L12.451,-46.582C12.451,-41.65 14.893,-39.551 19.434,-39.551ZM67.041,-39.551L91.894,-39.551C96.436,-39.551 98.877,-41.65 98.877,-46.582L98.877,-71.338C98.877,-76.221 96.436,-78.369 91.894,-78.369L67.041,-78.369C62.5,-78.369 60.059,-76.221 60.059,-71.338L60.059,-46.582C60.059,-41.65 62.5,-39.551 67.041,-39.551ZM67.188,-42.969C64.551,-42.969 63.477,-44.043 63.477,-46.68L63.477,-71.24C63.477,-73.877 64.551,-74.951 67.188,-74.951L91.797,-74.951C94.385,-74.951 95.459,-73.877 95.459,-71.24L95.459,-46.68C95.459,-44.043 94.385,-42.969 91.797,-42.969L67.188,-42.969ZM19.434,8.057L44.287,8.057C48.828,8.057 51.27,5.957 51.27,1.025L51.27,-23.731C51.27,-28.613 48.828,-30.762 44.287,-30.762L19.434,-30.762C14.893,-30.762 12.451,-28.613 12.451,-23.731L12.451,1.025C12.451,5.957 14.893,8.057 19.434,8.057ZM67.041,8.057L91.894,8.057C96.436,8.057 98.877,5.957 98.877,1.025L98.877,-23.731C98.877,-28.613 96.436,-30.762 91.894,-30.762L67.041,-30.762C62.5,-30.762 60.059,-28.613 60.059,-23.731L60.059,1.025C60.059,5.957 62.5,8.057 67.041,8.057ZM19.531,4.639C16.943,4.639 15.869,3.564 15.869,0.928L15.869,-23.633C15.869,-26.27 16.943,-27.344 19.531,-27.344L44.141,-27.344C46.777,-27.344 47.852,-26.27 47.852,-23.633L47.852,0.928C47.852,3.564 46.777,4.639 44.141,4.639L19.531,4.639ZM67.188,4.639C64.551,4.639 63.477,3.564 63.477,0.928L63.477,-23.633C63.477,-26.27 64.551,-27.344 67.188,-27.344L91.797,-27.344C94.385,-27.344 95.459,-26.27 95.459,-23.633L95.459,0.928C95.459,3.564 94.385,4.639 91.797,4.639L67.188,4.639Z" style="fill-rule:nonzero;"/>
        </g>
        <g id="Ultralight-M" transform="matrix(-1,0,0,1,614.887,1126)">
            <path d="M18.75,-39.648L44.385,-39.648C48.438,-39.648 50.684,-41.455 50.684,-45.947L50.684,-71.533C50.684,-76.025 48.438,-77.832 44.385,-77.832L18.75,-77.832C14.697,-77.832 12.451,-76.025 12.451,-71.533L12.451,-45.947C12.451,-41.455 14.697,-39.648 18.75,-39.648ZM65.967,-39.648L91.553,-39.648C95.654,-39.648 97.9,-41.455 97.9,-45.947L97.9,-71.533C97.9,-76.025 95.654,-77.832 91.553,-77.832L65.967,-77.832C61.865,-77.832 59.668,-76.025 59.668,-71.533L59.668,-45.947C59.668,-41.455 61.865,-39.648 65.967,-39.648ZM66.065,-42.041C63.184,-42.041 62.06,-43.164 62.06,-46.045L62.06,-71.436C62.06,-74.316 63.184,-75.44 66.065,-75.44L91.455,-75.44C94.336,-75.44 95.459,-74.316 95.459,-71.436L95.459,-46.045C95.459,-43.164 94.336,-42.041 91.455,-42.041L66.065,-42.041ZM18.75,7.568L44.385,7.568C48.438,7.568 50.684,5.713 50.684,1.27L50.684,-24.365C50.684,-28.809 48.438,-30.615 44.385,-30.615L18.75,-30.615C14.697,-30.615 12.451,-28.809 12.451,-24.365L12.451,1.27C12.451,5.713 14.697,7.568 18.75,7.568ZM65.967,7.568L91.553,7.568C95.654,7.568 97.9,5.713 97.9,1.27L97.9,-24.365C97.9,-28.809 95.654,-30.615 91.553,-30.615L65.967,-30.615C61.865,-30.615 59.668,-28.809 59.668,-24.365L59.668,1.27C59.668,5.713 61.865,7.568 65.967,7.568ZM18.897,5.176C15.967,5.176 14.844,4.053 14.844,1.172L14.844,-24.219C14.844,-27.1 15.967,-28.223 18.897,-28.223L44.238,-28.223C47.119,-28.223 48.242,-27.1 48.242,-24.219L48.242,1.172C48.242,4.053 47.119,5.176 44.238,5.176L18.897,5.176ZM66.065,5.176C63.184,5.176 62.06,4.053 62.06,1.172L62.06,-24.219C62.06,-27.1 63.184,-28.223 66.065,-28.223L91.455,-28.223C94.336,-28.223 95.459,-27.1 95.459,-24.219L95.459,1.172C95.459,4.053 94.336,5.176 91.455,5.176L66.065,5.176Z" style="fill-rule:nonzero;"/>
        </g>
        <g id="Black-S" transform="matrix(-1,0,0,1,2981.3,696)">
            <path d="M22.559,-37.305L33.008,-37.305C41.797,-37.305 45.801,-41.309 45.801,-50.098L45.801,-60.547C45.801,-69.336 41.797,-73.34 33.008,-73.34L22.559,-73.34C13.77,-73.34 9.766,-69.336 9.766,-60.547L9.766,-50.098C9.766,-41.309 13.77,-37.305 22.559,-37.305ZM62.793,-37.305L73.242,-37.305C82.031,-37.305 86.035,-41.309 86.035,-50.098L86.035,-60.547C86.035,-69.336 82.031,-73.34 73.242,-73.34L62.793,-73.34C54.004,-73.34 50,-69.336 50,-60.547L50,-50.098C50,-41.309 54.004,-37.305 62.793,-37.305ZM62.695,-48.047C61.328,-48.047 60.742,-48.633 60.742,-50L60.742,-60.645C60.742,-62.012 61.328,-62.598 62.695,-62.598L73.34,-62.598C74.707,-62.598 75.293,-62.012 75.293,-60.645L75.293,-50C75.293,-48.633 74.707,-48.047 73.34,-48.047L62.695,-48.047ZM22.559,2.93L33.008,2.93C41.797,2.93 45.801,-1.074 45.801,-9.863L45.801,-20.313C45.801,-29.102 41.797,-33.106 33.008,-33.106L22.559,-33.106C13.77,-33.106 9.766,-29.102 9.766,-20.313L9.766,-9.863C9.766,-1.074 13.77,2.93 22.559,2.93ZM62.793,2.93L73.242,2.93C82.031,2.93 86.035,-1.074 86.035,-9.863L86.035,-20.313C86.035,-29.102 82.031,-33.106 73.242,-33.106L62.793,-33.106C54.004,-33.106 50,-29.102 50,-20.313L50,-9.863C50,-1.074 54.004,2.93 62.793,2.93ZM22.461,-7.813C21.094,-7.813 20.508,-8.398 20.508,-9.766L20.508,-20.41C20.508,-21.777 21.094,-22.363 22.461,-22.363L33.106,-22.363C34.473,-22.363 35.059,-21.777 35.059,-20.41L35.059,-9.766C35.059,-8.398 34.473,-7.813 33.106,-7.813L22.461,-7.813ZM62.695,-7.813C61.328,-7.813 60.742,-8.398 60.742,-9.766L60.742,-20.41C60.742,-21.777 61.328,-22.363 62.695,-22.363L73.34,-22.363C74.707,-22.363 75.293,-21.777 75.293,-20.41L75.293,-9.766C75.293,-8.398 74.707,-7.813 73.34,-7.813L62.695,-7.813Z" style="fill-rule:nonzero;"/>
        </g>
        <g id="Heavy-S" transform="matrix(-1,0,0,1,2683.98,696)">
            <path d="M21.387,-37.549L33.35,-37.549C41.309,-37.549 44.971,-41.211 44.971,-49.219L44.971,-61.084C44.971,-69.043 41.309,-72.754 33.35,-72.754L21.387,-72.754C13.428,-72.754 9.766,-69.043 9.766,-61.084L9.766,-49.219C9.766,-41.211 13.428,-37.549 21.387,-37.549ZM61.231,-37.549L73.193,-37.549C81.152,-37.549 84.815,-41.211 84.815,-49.219L84.815,-61.084C84.815,-69.043 81.152,-72.754 73.193,-72.754L61.231,-72.754C53.32,-72.754 49.609,-69.043 49.609,-61.084L49.609,-49.219C49.609,-41.211 53.32,-37.549 61.231,-37.549ZM61.182,-47.168C59.863,-47.168 59.277,-47.803 59.277,-49.121L59.277,-61.182C59.277,-62.5 59.863,-63.086 61.182,-63.086L73.291,-63.086C74.609,-63.086 75.195,-62.5 75.195,-61.182L75.195,-49.121C75.195,-47.803 74.609,-47.168 73.291,-47.168L61.182,-47.168ZM21.387,2.344L33.35,2.344C41.309,2.344 44.971,-1.367 44.971,-9.326L44.971,-21.191C44.971,-29.199 41.309,-32.861 33.35,-32.861L21.387,-32.861C13.428,-32.861 9.766,-29.199 9.766,-21.191L9.766,-9.326C9.766,-1.367 13.428,2.344 21.387,2.344ZM61.231,2.344L73.193,2.344C81.152,2.344 84.815,-1.367 84.815,-9.326L84.815,-21.191C84.815,-29.199 81.152,-32.861 73.193,-32.861L61.231,-32.861C53.32,-32.861 49.609,-29.199 49.609,-21.191L49.609,-9.326C49.609,-1.367 53.32,2.344 61.231,2.344ZM21.338,-7.324C20.02,-7.324 19.434,-7.91 19.434,-9.229L19.434,-21.289C19.434,-22.607 20.02,-23.242 21.338,-23.242L33.398,-23.242C34.717,-23.242 35.303,-22.607 35.303,-21.289L35.303,-9.229C35.303,-7.91 34.717,-7.324 33.398,-7.324L21.338,-7.324ZM61.182,-7.324C59.863,-7.324 59.277,-7.91 59.277,-9.229L59.277,-21.289C59.277,-22.607 59.863,-23.242 61.182,-23.242L73.291,-23.242C74.609,-23.242 75.195,-22.607 75.195,-21.289L75.195,-9.229C75.195,-7.91 74.609,-7.324 73.291,-7.324L61.182,-7.324Z" style="fill-rule:nonzero;"/>
        </g>
        <g id="Bold-S" transform="matrix(-1,0,0,1,2386.61,696)">
            <path d="M20.068,-37.793L33.74,-37.793C40.723,-37.793 44.043,-41.113 44.043,-48.193L44.043,-61.67C44.043,-68.75 40.723,-72.07 33.74,-72.07L20.068,-72.07C13.086,-72.07 9.766,-68.75 9.766,-61.67L9.766,-48.193C9.766,-41.113 13.086,-37.793 20.068,-37.793ZM59.522,-37.793L73.193,-37.793C80.176,-37.793 83.496,-41.113 83.496,-48.193L83.496,-61.67C83.496,-68.75 80.176,-72.07 73.193,-72.07L59.522,-72.07C52.539,-72.07 49.219,-68.75 49.219,-61.67L49.219,-48.193C49.219,-41.113 52.539,-37.793 59.522,-37.793ZM59.522,-46.24C58.252,-46.24 57.666,-46.826 57.666,-48.145L57.666,-61.719C57.666,-63.037 58.252,-63.623 59.522,-63.623L73.193,-63.623C74.463,-63.623 75.049,-63.037 75.049,-61.719L75.049,-48.145C75.049,-46.826 74.463,-46.24 73.193,-46.24L59.522,-46.24ZM20.068,1.66L33.74,1.66C40.723,1.66 44.043,-1.66 44.043,-8.74L44.043,-22.217C44.043,-29.297 40.723,-32.617 33.74,-32.617L20.068,-32.617C13.086,-32.617 9.766,-29.297 9.766,-22.217L9.766,-8.74C9.766,-1.66 13.086,1.66 20.068,1.66ZM59.522,1.66L73.193,1.66C80.176,1.66 83.496,-1.66 83.496,-8.74L83.496,-22.217C83.496,-29.297 80.176,-32.617 73.193,-32.617L59.522,-32.617C52.539,-32.617 49.219,-29.297 49.219,-22.217L49.219,-8.74C49.219,-1.66 52.539,1.66 59.522,1.66ZM20.02,-6.787C18.799,-6.787 18.213,-7.373 18.213,-8.691L18.213,-22.266C18.213,-23.535 18.799,-24.17 20.02,-24.17L33.74,-24.17C34.961,-24.17 35.596,-23.535 35.596,-22.266L35.596,-8.691C35.596,-7.373 34.961,-6.787 33.74,-6.787L20.02,-6.787ZM59.522,-6.787C58.252,-6.787 57.666,-7.373 57.666,-8.691L57.666,-22.266C57.666,-23.535 58.252,-24.17 59.522,-24.17L73.193,-24.17C74.463,-24.17 75.049,-23.535 75.049,-22.266L75.049,-8.691C75.049,-7.373 74.463,-6.787 73.193,-6.787L59.522,-6.787Z" style="fill-rule:nonzero;"/>
        </g>
        <g id="Semibold-S" transform="matrix(-1,0,0,1,2089.43,696)">
            <path d="M19.141,-37.988L33.984,-37.988C40.332,-37.988 43.359,-41.065 43.359,-47.51L43.359,-62.06C43.359,-68.555 40.332,-71.582 33.984,-71.582L19.141,-71.582C12.793,-71.582 9.766,-68.555 9.766,-62.06L9.766,-47.51C9.766,-41.065 12.793,-37.988 19.141,-37.988ZM58.35,-37.988L73.144,-37.988C79.492,-37.988 82.568,-41.065 82.568,-47.51L82.568,-62.06C82.568,-68.555 79.492,-71.582 73.144,-71.582L58.35,-71.582C52.002,-71.582 48.926,-68.555 48.926,-62.06L48.926,-47.51C48.926,-41.065 52.002,-37.988 58.35,-37.988ZM58.35,-45.557C57.129,-45.557 56.543,-46.191 56.543,-47.461L56.543,-62.158C56.543,-63.379 57.129,-64.014 58.35,-64.014L73.144,-64.014C74.365,-64.014 74.951,-63.379 74.951,-62.158L74.951,-47.461C74.951,-46.191 74.365,-45.557 73.144,-45.557L58.35,-45.557ZM19.141,1.172L33.984,1.172C40.332,1.172 43.359,-1.855 43.359,-8.35L43.359,-22.9C43.359,-29.346 40.332,-32.422 33.984,-32.422L19.141,-32.422C12.793,-32.422 9.766,-29.346 9.766,-22.9L9.766,-8.35C9.766,-1.855 12.793,1.172 19.141,1.172ZM58.35,1.172L73.144,1.172C79.492,1.172 82.568,-1.855 82.568,-8.35L82.568,-22.9C82.568,-29.346 79.492,-32.422 73.144,-32.422L58.35,-32.422C52.002,-32.422 48.926,-29.346 48.926,-22.9L48.926,-8.35C48.926,-1.855 52.002,1.172 58.35,1.172ZM19.141,-6.396C17.969,-6.396 17.334,-7.031 17.334,-8.252L17.334,-22.949C17.334,-24.219 17.969,-24.854 19.141,-24.854L33.936,-24.854C35.156,-24.854 35.791,-24.219 35.791,-22.949L35.791,-8.252C35.791,-7.031 35.156,-6.396 33.936,-6.396L19.141,-6.396ZM58.35,-6.396C57.129,-6.396 56.543,-7.031 56.543,-8.252L56.543,-22.949C56.543,-24.219 57.129,-24.854 58.35,-24.854L73.144,-24.854C74.365,-24.854 74.951,-24.219 74.951,-22.949L74.951,-8.252C74.951,-7.031 74.365,-6.396 73.144,-6.396L58.35,-6.396Z" style="fill-rule:nonzero;"/>
        </g>
        <g id="Medium-S" transform="matrix(-1,0,0,1,1792.35,696)">
            <path d="M18.457,-38.135L34.18,-38.135C40.039,-38.135 42.871,-41.016 42.871,-46.973L42.871,-62.402C42.871,-68.359 40.039,-71.24 34.18,-71.24L18.457,-71.24C12.598,-71.24 9.766,-68.359 9.766,-62.402L9.766,-46.973C9.766,-41.016 12.598,-38.135 18.457,-38.135ZM57.422,-38.135L73.144,-38.135C79.004,-38.135 81.836,-41.016 81.836,-46.973L81.836,-62.402C81.836,-68.359 79.004,-71.24 73.144,-71.24L57.422,-71.24C51.563,-71.24 48.731,-68.359 48.731,-62.402L48.731,-46.973C48.731,-41.016 51.563,-38.135 57.422,-38.135ZM57.471,-45.068C56.25,-45.068 55.664,-45.703 55.664,-46.973L55.664,-62.451C55.664,-63.672 56.25,-64.307 57.471,-64.307L73.096,-64.307C74.316,-64.307 74.902,-63.672 74.902,-62.451L74.902,-46.973C74.902,-45.703 74.316,-45.068 73.096,-45.068L57.471,-45.068ZM18.457,0.83L34.18,0.83C40.039,0.83 42.871,-2.051 42.871,-8.008L42.871,-23.438C42.871,-29.395 40.039,-32.275 34.18,-32.275L18.457,-32.275C12.598,-32.275 9.766,-29.395 9.766,-23.438L9.766,-8.008C9.766,-2.051 12.598,0.83 18.457,0.83ZM57.422,0.83L73.144,0.83C79.004,0.83 81.836,-2.051 81.836,-8.008L81.836,-23.438C81.836,-29.395 79.004,-32.275 73.144,-32.275L57.422,-32.275C51.563,-32.275 48.731,-29.395 48.731,-23.438L48.731,-8.008C48.731,-2.051 51.563,0.83 57.422,0.83ZM18.506,-6.104C17.334,-6.104 16.699,-6.738 16.699,-7.959L16.699,-23.438C16.699,-24.707 17.334,-25.342 18.506,-25.342L34.131,-25.342C35.303,-25.342 35.938,-24.707 35.938,-23.438L35.938,-7.959C35.938,-6.738 35.303,-6.104 34.131,-6.104L18.506,-6.104ZM57.471,-6.104C56.25,-6.104 55.664,-6.738 55.664,-7.959L55.664,-23.438C55.664,-24.707 56.25,-25.342 57.471,-25.342L73.096,-25.342C74.316,-25.342 74.902,-24.707 74.902,-23.438L74.902,-7.959C74.902,-6.738 74.316,-6.104 73.096,-6.104L57.471,-6.104Z" style="fill-rule:nonzero;"/>
        </g>
        <g id="Regular-S" transform="matrix(-1,0,0,1,1495.18,696)">
            <path d="M17.578,-38.281L34.424,-38.281C39.648,-38.281 42.236,-40.918 42.236,-46.289L42.236,-62.793C42.236,-68.164 39.648,-70.801 34.424,-70.801L17.578,-70.801C12.354,-70.801 9.766,-68.164 9.766,-62.793L9.766,-46.289C9.766,-40.918 12.354,-38.281 17.578,-38.281ZM56.25,-38.281L73.096,-38.281C78.32,-38.281 80.908,-40.918 80.908,-46.289L80.908,-62.793C80.908,-68.164 78.32,-70.801 73.096,-70.801L56.25,-70.801C51.025,-70.801 48.438,-68.164 48.438,-62.793L48.438,-46.289C48.438,-40.918 51.025,-38.281 56.25,-38.281ZM56.348,-44.434C55.176,-44.434 54.541,-45.068 54.541,-46.289L54.541,-62.842C54.541,-64.014 55.176,-64.648 56.348,-64.648L73.047,-64.648C74.219,-64.648 74.805,-64.014 74.805,-62.842L74.805,-46.289C74.805,-45.068 74.219,-44.434 73.047,-44.434L56.348,-44.434ZM17.578,0.391L34.424,0.391C39.648,0.391 42.236,-2.246 42.236,-7.617L42.236,-24.121C42.236,-29.492 39.648,-32.08 34.424,-32.08L17.578,-32.08C12.354,-32.08 9.766,-29.492 9.766,-24.121L9.766,-7.617C9.766,-2.246 12.354,0.391 17.578,0.391ZM56.25,0.391L73.096,0.391C78.32,0.391 80.908,-2.246 80.908,-7.617L80.908,-24.121C80.908,-29.492 78.32,-32.08 73.096,-32.08L56.25,-32.08C51.025,-32.08 48.438,-29.492 48.438,-24.121L48.438,-7.617C48.438,-2.246 51.025,0.391 56.25,0.391ZM17.627,-5.762C16.504,-5.762 15.869,-6.396 15.869,-7.568L15.869,-24.121C15.869,-25.342 16.504,-25.977 17.627,-25.977L34.326,-25.977C35.498,-25.977 36.133,-25.342 36.133,-24.121L36.133,-7.568C36.133,-6.396 35.498,-5.762 34.326,-5.762L17.627,-5.762ZM56.348,-5.762C55.176,-5.762 54.541,-6.396 54.541,-7.568L54.541,-24.121C54.541,-25.342 55.176,-25.977 56.348,-25.977L73.047,-25.977C74.219,-25.977 74.805,-25.342 74.805,-24.121L74.805,-7.568C74.805,-6.396 74.219,-5.762 73.047,-5.762L56.348,-5.762Z" style="fill-rule:nonzero;"/>
        </g>
        <g id="Light-S" transform="matrix(-1,0,0,1,1197.82,696)">
            <path d="M16.65,-38.428L34.522,-38.428C39.111,-38.428 41.455,-40.674 41.455,-45.459L41.455,-63.086C41.455,-67.871 39.111,-70.117 34.522,-70.117L16.65,-70.117C12.109,-70.117 9.766,-67.871 9.766,-63.086L9.766,-45.459C9.766,-40.674 12.109,-38.428 16.65,-38.428ZM54.834,-38.428L72.705,-38.428C77.295,-38.428 79.59,-40.674 79.59,-45.459L79.59,-63.086C79.59,-67.871 77.295,-70.117 72.705,-70.117L54.834,-70.117C50.244,-70.117 47.9,-67.871 47.9,-63.086L47.9,-45.459C47.9,-40.674 50.244,-38.428 54.834,-38.428ZM54.932,-43.213C53.418,-43.213 52.734,-43.945 52.734,-45.508L52.734,-63.086C52.734,-64.6 53.418,-65.332 54.932,-65.332L72.607,-65.332C74.121,-65.332 74.805,-64.6 74.805,-63.086L74.805,-45.508C74.805,-43.945 74.121,-43.213 72.607,-43.213L54.932,-43.213ZM16.65,-0.293L34.522,-0.293C39.111,-0.293 41.455,-2.539 41.455,-7.324L41.455,-24.902C41.455,-29.688 39.111,-31.934 34.522,-31.934L16.65,-31.934C12.109,-31.934 9.766,-29.688 9.766,-24.902L9.766,-7.324C9.766,-2.539 12.109,-0.293 16.65,-0.293ZM54.834,-0.293L72.705,-0.293C77.295,-0.293 79.59,-2.539 79.59,-7.324L79.59,-24.902C79.59,-29.688 77.295,-31.934 72.705,-31.934L54.834,-31.934C50.244,-31.934 47.9,-29.688 47.9,-24.902L47.9,-7.324C47.9,-2.539 50.244,-0.293 54.834,-0.293ZM16.748,-5.078C15.234,-5.078 14.551,-5.811 14.551,-7.324L14.551,-24.902C14.551,-26.416 15.234,-27.148 16.748,-27.148L34.424,-27.148C35.938,-27.148 36.67,-26.416 36.67,-24.902L36.67,-7.324C36.67,-5.811 35.938,-5.078 34.424,-5.078L16.748,-5.078ZM54.932,-5.078C53.418,-5.078 52.734,-5.811 52.734,-7.324L52.734,-24.902C52.734,-26.416 53.418,-27.148 54.932,-27.148L72.607,-27.148C74.121,-27.148 74.805,-26.416 74.805,-24.902L74.805,-7.324C74.805,-5.811 74.121,-5.078 72.607,-5.078L54.932,-5.078Z" style="fill-rule:nonzero;"/>
        </g>
        <g id="Thin-S" transform="matrix(-1,0,0,1,900.246,696)">
            <path d="M15.479,-38.574L34.668,-38.574C38.428,-38.574 40.43,-40.332 40.43,-44.336L40.43,-63.428C40.43,-67.432 38.428,-69.238 34.668,-69.238L15.479,-69.238C11.768,-69.238 9.766,-67.432 9.766,-63.428L9.766,-44.336C9.766,-40.332 11.768,-38.574 15.479,-38.574ZM52.93,-38.574L72.119,-38.574C75.879,-38.574 77.881,-40.332 77.881,-44.336L77.881,-63.428C77.881,-67.432 75.879,-69.238 72.119,-69.238L52.93,-69.238C49.219,-69.238 47.217,-67.432 47.217,-63.428L47.217,-44.336C47.217,-40.332 49.219,-38.574 52.93,-38.574ZM53.027,-41.65C51.074,-41.65 50.293,-42.432 50.293,-44.434L50.293,-63.379C50.293,-65.332 51.074,-66.162 53.027,-66.162L72.07,-66.162C74.023,-66.162 74.805,-65.332 74.805,-63.379L74.805,-44.434C74.805,-42.432 74.023,-41.65 72.07,-41.65L53.027,-41.65ZM15.479,-1.123L34.668,-1.123C38.428,-1.123 40.43,-2.881 40.43,-6.885L40.43,-25.977C40.43,-29.981 38.428,-31.787 34.668,-31.787L15.479,-31.787C11.768,-31.787 9.766,-29.981 9.766,-25.977L9.766,-6.885C9.766,-2.881 11.768,-1.123 15.479,-1.123ZM52.93,-1.123L72.119,-1.123C75.879,-1.123 77.881,-2.881 77.881,-6.885L77.881,-25.977C77.881,-29.981 75.879,-31.787 72.119,-31.787L52.93,-31.787C49.219,-31.787 47.217,-29.981 47.217,-25.977L47.217,-6.885C47.217,-2.881 49.219,-1.123 52.93,-1.123ZM15.576,-4.199C13.623,-4.199 12.842,-4.98 12.842,-6.982L12.842,-25.928C12.842,-27.881 13.623,-28.711 15.576,-28.711L34.57,-28.711C36.523,-28.711 37.353,-27.881 37.353,-25.928L37.353,-6.982C37.353,-4.98 36.523,-4.199 34.57,-4.199L15.576,-4.199ZM53.027,-4.199C51.074,-4.199 50.293,-4.98 50.293,-6.982L50.293,-25.928C50.293,-27.881 51.074,-28.711 53.027,-28.711L72.07,-28.711C74.023,-28.711 74.805,-27.881 74.805,-25.928L74.805,-6.982C74.805,-4.98 74.023,-4.199 72.07,-4.199L53.027,-4.199Z" style="fill-rule:nonzero;"/>
        </g>
        <g id="Ultralight-S" transform="matrix(-1,0,0,1,603.071,696)">
            <path d="M14.893,-38.672L34.766,-38.672C38.086,-38.672 39.893,-40.186 39.893,-43.799L39.893,-63.623C39.893,-67.236 38.086,-68.75 34.766,-68.75L14.893,-68.75C11.572,-68.75 9.766,-67.236 9.766,-63.623L9.766,-43.799C9.766,-40.186 11.572,-38.672 14.893,-38.672ZM52.002,-38.672L71.826,-38.672C75.147,-38.672 76.953,-40.186 76.953,-43.799L76.953,-63.623C76.953,-67.236 75.147,-68.75 71.826,-68.75L52.002,-68.75C48.682,-68.75 46.875,-67.236 46.875,-63.623L46.875,-43.799C46.875,-40.186 48.682,-38.672 52.002,-38.672ZM52.1,-40.82C49.902,-40.82 49.023,-41.699 49.023,-43.897L49.023,-63.525C49.023,-65.723 49.902,-66.602 52.1,-66.602L71.729,-66.602C73.926,-66.602 74.805,-65.723 74.805,-63.525L74.805,-43.897C74.805,-41.699 73.926,-40.82 71.729,-40.82L52.1,-40.82ZM14.893,-1.563L34.766,-1.563C38.086,-1.563 39.893,-3.076 39.893,-6.689L39.893,-26.514C39.893,-30.127 38.086,-31.641 34.766,-31.641L14.893,-31.641C11.572,-31.641 9.766,-30.127 9.766,-26.514L9.766,-6.689C9.766,-3.076 11.572,-1.563 14.893,-1.563ZM52.002,-1.563L71.826,-1.563C75.147,-1.563 76.953,-3.076 76.953,-6.689L76.953,-26.514C76.953,-30.127 75.147,-31.641 71.826,-31.641L52.002,-31.641C48.682,-31.641 46.875,-30.127 46.875,-26.514L46.875,-6.689C46.875,-3.076 48.682,-1.563 52.002,-1.563ZM14.99,-3.711C12.793,-3.711 11.914,-4.59 11.914,-6.787L11.914,-26.465C11.914,-28.613 12.793,-29.492 14.99,-29.492L34.668,-29.492C36.865,-29.492 37.695,-28.613 37.695,-26.465L37.695,-6.787C37.695,-4.59 36.865,-3.711 34.668,-3.711L14.99,-3.711ZM52.1,-3.711C49.902,-3.711 49.023,-4.59 49.023,-6.787L49.023,-26.465C49.023,-28.613 49.902,-29.492 52.1,-29.492L71.729,-29.492C73.926,-29.492 74.805,-28.613 74.805,-26.465L74.805,-6.787C74.805,-4.59 73.926,-3.711 71.729,-3.711L52.1,-3.711Z" style="fill-rule:nonzero;"/>
        </g>
    </g>
</svg>
